<?xml version="1.0"?>
<svg id="Layer_2" data-name="Layer 2" xmlns="http://www.w3.org/2000/svg" width="1343.58" height="613.64" viewBox="0 0 1343.58 613.64">
  <defs>
    
  </defs>
  <g id="Layer_1-2" data-name="Layer 1">
    <g>
      <g>
        <path fill="#FF9100" d="M172.3,466.08l55.16,146.24c33.35-48.73,65.82-97.46,97.54-146.24h-152.7ZM310.85,354.75L172.89,0H0l164.41,435.83h176.65c60.58-94.11,118.46-188.47,174.94-283.54l-205.14,202.46Z"></path>
        <g>
          <g>
            <g>
              <path fill="#303030" d="M1321.26,173.84c1.55,0,2.77-.4,3.64-1.2.88-.8,1.31-1.9,1.31-3.31s-.44-2.49-1.31-3.27c-.88-.78-2.09-1.16-3.64-1.16h-6.23v16.08h1.5v-7.14h3l5.18,7.14,1.65-.08-5.18-7.06h.07ZM1316.53,172.42v-6.08h4.58c2.4,0,3.61,1,3.61,3,0,1.05-.33,1.83-.98,2.33-.65.5-1.53.75-2.63.75h-4.58Z"></path>
              <path fill="#303030" d="M1332.19,165.69c-1.18-2.18-2.83-3.91-4.96-5.18-2.13-1.28-4.52-1.92-7.17-1.92s-5.05.64-7.17,1.92c-2.13,1.28-3.78,3-4.96,5.18-1.18,2.18-1.77,4.6-1.77,7.25s.59,5.07,1.77,7.25c1.18,2.18,2.83,3.91,4.96,5.18,2.13,1.28,4.52,1.92,7.17,1.92s5.04-.64,7.17-1.92c2.13-1.28,3.78-3,4.96-5.18,1.18-2.18,1.77-4.59,1.77-7.25s-.59-5.07-1.77-7.25ZM1330.87,179.52c-1.05,1.98-2.52,3.53-4.39,4.66-1.88,1.13-4.02,1.69-6.42,1.69s-4.54-.56-6.42-1.69c-1.88-1.13-3.34-2.68-4.39-4.66-1.05-1.98-1.58-4.17-1.58-6.57s.53-4.59,1.58-6.57c1.05-1.98,2.52-3.53,4.39-4.66,1.88-1.13,4.02-1.69,6.42-1.69s4.54.56,6.42,1.69c1.88,1.13,3.34,2.68,4.39,4.66,1.05,1.98,1.58,4.17,1.58,6.57s-.53,4.6-1.58,6.57Z"></path>
            </g>
            <polygon fill="#303030" points="615.21 558.58 586.1 472.56 517.15 472.56 517.15 611.67 559.17 611.67 559.17 507.95 598.01 611.67 631.93 611.67 670.51 508.2 670.51 611.67 712.54 611.67 712.54 472.56 638.51 472.56 615.21 558.58"></polygon>
            <path fill="#303030" d="M823.38,493.94c-3.93-6.39-9.55-11.55-16.84-15.48-7.29-3.93-15.77-5.9-25.44-5.9-11.31,0-21.55,2.87-30.72,8.6-9.18,5.74-16.43,13.93-21.75,24.58-5.33,10.65-7.99,23.02-7.99,37.11s2.66,26.51,7.99,37.24c5.32,10.73,12.57,19.01,21.75,24.82,9.17,5.82,19.33,8.73,30.48,8.73,9.67,0,18.14-1.97,25.44-5.9,7.29-3.93,12.98-9.09,17.08-15.48v19.42h42.03v-137.14h-42.03v19.42ZM814.66,567.92c-5.82,6.06-12.9,9.09-21.26,9.09s-15.45-3.07-21.26-9.22c-5.82-6.14-8.73-14.46-8.73-24.95s2.91-18.72,8.73-24.7c5.81-5.98,12.9-8.97,21.26-8.97s15.44,3.03,21.26,9.09c5.81,6.06,8.73,14.34,8.73,24.82s-2.91,18.76-8.73,24.82Z"></path>
            <path fill="#303030" d="M924.15,497.39v-22.86h-42.03v137.14h42.03v-63.66c0-11.31,2.62-19.21,7.87-23.72,5.24-4.5,13.11-6.76,23.59-6.76h11.55v-44.49c-9.01,0-17.21,2.17-24.58,6.51-7.37,4.34-13.52,10.28-18.43,17.82Z"></path>
            <polygon fill="#303030" points="1111.74 474.53 1059.88 474.53 1018.34 530.32 1018.34 472.56 976.32 472.56 976.32 611.67 1018.34 611.67 1018.34 554.16 1060.13 611.67 1112.23 611.67 1054.72 543.35 1111.74 474.53"></polygon>
            <path fill="#303030" d="M1208.02,480.92c-10.32-5.57-22.12-8.36-35.39-8.36s-25.65,2.87-36.13,8.6c-10.49,5.74-18.64,13.93-24.45,24.58-5.82,10.65-8.73,23.1-8.73,37.36s2.95,26.71,8.85,37.36c5.9,10.65,14.09,18.84,24.58,24.58,10.48,5.74,22.45,8.6,35.88,8.6,11.14,0,21.22-2.05,30.23-6.14,9.01-4.09,16.51-9.75,22.49-16.96,5.98-7.21,10.12-15.32,12.41-24.33h-44.73c-4.1,8.85-11.39,13.27-21.87,13.27-7.05,0-12.99-2.25-17.82-6.76-4.83-4.5-7.58-11.02-8.23-19.54h95.11c.49-4.26.74-8.36.74-12.29,0-13.76-2.91-25.81-8.73-36.13-5.82-10.32-13.89-18.27-24.21-23.84ZM1145.35,529.83c1.14-7.53,4.14-13.35,8.97-17.45,4.83-4.09,10.77-6.14,17.82-6.14s13.52,2.13,18.43,6.39c4.92,4.26,7.37,10,7.37,17.2h-52.6Z"></path>
            <path fill="#303030" d="M1291.34,497.39v-22.86h-42.03v137.14h42.03v-63.66c0-11.31,2.62-19.21,7.87-23.72,5.24-4.5,13.11-6.76,23.59-6.76h11.55v-44.49c-9.01,0-17.21,2.17-24.58,6.51-7.37,4.34-13.52,10.28-18.43,17.82Z"></path>
          </g>
          <g>
            <path fill="#FF9100" d="M1341.57,421.53c-.05,1.32.57.85.69,1.05-.14-2.22-.85-.99-.69-1.05Z"></path>
            <polygon fill="#FF9100" points="1330.95 408.22 1329.18 409.36 1330.74 408.69 1330.95 408.22"></polygon>
            <path fill="#FF9100" d="M1325.59,409.04l.33.44.9-1.57c-2.43.25-5.58,1.29-7.3.75,1.06,1.95,4.07-.31,6.06.38Z"></path>
            <path fill="#FF9100" d="M1314.68,404.49c-.24.01-.58,0-1.14-.05.37.76-1.29.65,1.4.24-.14-.08-.17-.13-.25-.19Z"></path>
            <path fill="#FF9100" d="M1314.68,404.49c1.18-.05-.77-.64,0,0h0Z"></path>
            <path fill="#FF9100" d="M1309.23,404.92l1.56-.68c-.33-.45-1.71-.55-1.2-.88-1.6.37-1.27.82-.36,1.55Z"></path>
            <path fill="#FF9100" d="M1307.75,406.35l.81-.29c-.14-.19-.35-.25-.81.29Z"></path>
            <path fill="#FF9100" d="M1309.34,405.84c-.14.58.2.02.93-.39l-1.71.61c.23.32.25.95.79-.22Z"></path>
            <path fill="#FF9100" d="M1311.67,407.12c2.98-.27,2.54-1.64-.44-1.37.87.42,2,.69.44,1.37Z"></path>
            <path fill="#FF9100" d="M1321.13,410.6c-.5.32-2.25-.53-2.18.08l1.17.57,1.01-.65Z"></path>
            <path fill="#FF9100" d="M1299.53,403.91c-.1.42.52,1.11.64,1.64l1.15-.48c-.59-.28-1.71-.55-1.79-1.16Z"></path>
            <path fill="#FF9100" d="M1300.17,405.55l-1.72.71c1.54.08,1.82-.26,1.72-.71Z"></path>
            <polygon fill="#FF9100" points="1310.3 407.02 1306.93 408.53 1307.47 408.51 1310.3 407.02"></polygon>
            <polygon fill="#FF9100" points="1293.94 402.9 1292.2 404.35 1292.96 403.86 1293.94 402.9"></polygon>
            <path fill="#FF9100" d="M1288.6,404.03c.72-.8-.99-1.35-.23-1.84-1.18.14-2.19.83-3.1,1.44.97-.34,2-.26,3.33.4Z"></path>
            <path fill="#FF9100" d="M1283.74,404.53c.48-.19.98-.53,1.53-.9-.51.18-1.02.45-1.53.9Z"></path>
            <path fill="#FF9100" d="M1295.52,406.06c-.13-.25-.39-.91-1.35-1.19l.68,1.17c.21,0,.44.01.68.02Z"></path>
            <path fill="#FF9100" d="M1294.87,406.08l-.02-.04c-.73-.03-1.24-.06-1.46-.07.19.01.63.04,1.49.1Z"></path>
            <path fill="#FF9100" d="M1295.69,406.06c-.06,0-.11,0-.17,0,.07.11.1.15.17,0Z"></path>
            <path fill="#FF9100" d="M1302.96,407.46c-1.01.65-3.12,1.35-1.08,2.35.72-.8-.44-1.37,1.08-2.35Z"></path>
            <path fill="#FF9100" d="M1298.49,406.71l-1.96.82,1.83.27c-.04-.31-.37-.76.14-1.08Z"></path>
            <polygon fill="#FF9100" points="1296.53 407.52 1295.85 407.43 1295.64 407.9 1296.53 407.52"></polygon>
            <path fill="#FF9100" d="M1286.87,405.62c-.79.51-1.65.55-2.63.63,1.05.23,2.13.35,3.15.35.14-.37.6-1.03-.52-.98Z"></path>
            <path fill="#FF9100" d="M1290.76,405.95c-.05.02-.12.05-.18.07.11.1.19.13.18-.07Z"></path>
            <path fill="#FF9100" d="M1274.65,406.25c.05.07.1.14.15.21.01-.07.02-.13.04-.2h-.19Z"></path>
            <path fill="#FF9100" d="M1287.57,406.82c.79.23,1.26-.06,1.7-.42-.59.12-1.21.19-1.88.2-.07.17-.08.27.18.22Z"></path>
            <path fill="#FF9100" d="M1281.07,405.07c.41.24.87.45,1.36.64-.4-.37-1.22-.95-1.36-.64Z"></path>
            <path fill="#FF9100" d="M1290.32,405.69s.07-.04.12-.05c-.26-.25-.23-.13-.12.05Z"></path>
            <path fill="#FF9100" d="M1290.32,405.69c-.4.17-.72.46-1.04.71.48-.09.92-.22,1.31-.39-.1-.08-.19-.21-.26-.32Z"></path>
            <path fill="#FF9100" d="M1278.24,406.57l.74-.13c-.85-.19-1.45-.62-2.57-1.47-1.24.53-1.49.93-1.58,1.29l3.66.15-.25.16Z"></path>
            <path fill="#FF9100" d="M1282.32,406.43c-.58,1.18-2.36,1.68-1.27,2.95,2.18-.08,1.53-.98,2.83-1.5-3.52.29,1.01-.66-1.53-1.32.69-.2,1.31-.26,1.9-.31-.63-.14-1.24-.32-1.82-.54.03.03.05.05.08.07h.02s0,.01,0,.01c.15.15.2.24.03.15-.01.01-.05.02-.07.02-.02.16-.09.31-.16.44-1.02-.24-.16-.31.16-.44.01-.06.04-.11.04-.18h-.01s-3.52.63-3.52.63c.75.16,1.68.13,3.34,0Z"></path>
            <path fill="#FF9100" d="M1300,412.34c-.11-.1-.1-.19-.11-.27-.23.14-.31.24.11.27Z"></path>
            <path fill="#FF9100" d="M1296.94,409.04c-.03-.09-.07-.17-.11-.26-.05.03,0,.13.11.26Z"></path>
            <path fill="#FF9100" d="M1300.07,410.65l-.25.16c-1.12-.32-2.48-1.29-2.89-1.77.38.93.75,1.64,1.62,2.59.26-.16.47-.64,1.3-.51.72.35,0,.56.03.95.5-.31,1.76-.85.18-1.42Z"></path>
            <path fill="#FF9100" d="M1290.34,409.33l-2.93.58,1.49,1.02-.08-.61c1.67.24,1.31-.51,1.52-.99Z"></path>
            <polygon fill="#FF9100" points="1274.7 404.42 1273.01 406.17 1274.31 405.66 1274.7 404.42"></polygon>
            <polygon fill="#FF9100" points="1270.64 404.73 1269.63 405.38 1270.5 405.81 1270.64 404.73"></polygon>
            <path fill="#FF9100" d="M1176.83,405.93c-1.26-1.01-2.66-2.58-2.51-1.36l.39,1.19c.88-.21,1.55-.08,2.12.18Z"></path>
            <path fill="#FF9100" d="M1231.44,406.25c-1.08-.46-1.95-.66-2.7-.72,1.31.68,2.36,1.7,2.7.72Z"></path>
            <path fill="#FF9100" d="M1131.2,428.67c.53-.21.75-.46.74-.72-.54.2-.85.43-.74.72Z"></path>
            <path fill="#FF9100" d="M1228.73,405.53c-.96-.51-2.07-.82-3.13,0,.19.12.38.18.57.28.79-.2,1.59-.36,2.56-.28Z"></path>
            <path fill="#FF9100" d="M1327.44,427.78c-.35.07-.93.07-1.48.09.27.08.71.07,1.48-.09Z"></path>
            <path fill="#FF9100" d="M1255.15,405.29c.81-.08.13-.13,0,0h0Z"></path>
            <path fill="#FF9100" d="M1258.76,410.56c.07-.29.18-.47.32-.58-.17.13-.3.3-.32.58Z"></path>
            <path fill="#FF9100" d="M1256.37,405.83c-.3-.15-.65-.27-1.03-.35.17.09.48.21,1.03.35Z"></path>
            <path fill="#FF9100" d="M1256.21,405.27c.28.05.5.08.71.11.1-.2.01-.32-.71-.11Z"></path>
            <path fill="#FF9100" d="M1255.15,405.29c-.24.01-.57.03-1.13.06.46-.02.89.04,1.31.12-.16-.08-.23-.15-.18-.19Z"></path>
            <path fill="#FF9100" d="M1263.35,405.47c-.03-.26-.28-.63,0-.74l-1.57.31c.85-.07,1.15.22,1.58.43Z"></path>
            <path fill="#FF9100" d="M1263.34,404.73l.18-.04c-.08,0-.13.02-.18.04Z"></path>
            <path fill="#FF9100" d="M1279.54,412.68l-.07-.61c-.94.03-1.64.41-1.08.68h-2.52c1.55-.94.43-4.35-1.06-6.28-.05.47-.05.91-1.86,1.55.63.59,4.01,1.38,2.48,2.36-2.39.56-1.96-.38-3.12-.96.88,1.2-2.19,1.82-2.53,3.33h-14.52c.09-.16.08-.33-.11-.5l-1.35.21c-1.24-1.19,2.54-1.64.83-2.19,1.81-.83,3.83-2.14,6.38-1.47l.48,1.68c-.05-.49-1.66-1-2.38-.49,1.06-.74,3.9,2.27,5.06.07l-1.78-1.16c1.81-.84,4.06-2.62,6.31-2.09-1.03-1.66-.52.19-2.12-1.75,1.34,2.32-5.24.08-3.75,2.17-1.54-1.87-2.73-.77-4.79-2.61.07.55.76,1.06-1.13.78-.09.16-.29.37-.42.49-.06-.02-.08-.03-.13-.04.04.02.07.04.1.07-.08.08-.09.1.04.02.45.24.82.53.96.84-.94,1.27-3.95,1.23-4.97,1.89-1.12-.26.47-.63-.14-1.22l-1.52.98c-.15-1.23-2.98-2.04-.34-2.76l-2.38-.05c-1.4-.69-3.33-.96-4.52-.45-1.12-.27-2.84,1.36-1.86.4l-3.74.76-.03-.31c-3.69-.15-7.59,2.03-11.8-.18-1.24.31-2.52.69-4.6.34l-.4-1.06c-1.59.37-4.78-1.06-5.47.04-1.72-2.86-7.73-.62-10.53-1.13l-.11,1.39c-1.93-.08-3.78.31-6.17.87l.15,1.23c-2.06,1.01-5.31-.87-8.57-.75.22-.47,1.05-.35,1.64-.06-3.9-2.77-8.23,2.01-11.77,0-.88.45-1.52.29-2.14-.01.08,0,.16-.03.22-.06-.09-.01-.22-.02-.36-.01-.39-.21-.79-.46-1.22-.65.37.3.72.54,1.03.66-.68.03-1.71.18-2.72.48l-.43-1.32c-.08.01-.15.02-.23.04-.99-.49-.8.62-.27,1.61-.51.22-.98.48-1.34.79-.81-2.13-2.65.72-3.75-1.55-.63,1.02-4.44.87-5.43,2.68-1.12-.26-2.23-.52-3.24.13l-.48-1.67-2.46,2.25c-1.49-1.02-2.11-1.61-.63-2.9-3.58,1.98-2.91.75-5.95,2.71l.15-1.08c-1.09.04-2.83,1.49-3.49.6-2.44-2.06-12.06-.28-18.31-2.2,1.21,3.19-2.91-1.43-3.16,1.04-.36-.75-1.24-1.18-.22-1.83-3.19.74-4.8-1.19-7,.89-.37-.76.68-1.11.36-1.55-.26.16-1.01.66-1.35.21-.33-.45.47-.63.97-.96-3.26.13-3.59,2.45-3.83,4.63-1.65-1.03-2.48-.89-3.67.54-.58-.71-1.53-1.46.49-1.72-1.14-.1-6.96-1.05-7.08.7-.36-.44-1.59-.13-1.89.07-2.56-.1-2.78-.26-5.29-.1l.7.29c-.35.75-.72,1.02-1.14,1.08l-1.34.18.09,2.1c.06,1.37-.29,3.05-.2,5.42l-.12-.11c-.23,2.36-.31,3.69-.31,4.52v3.4s1.87.02,1.87.02c1.25.01.81-.8,4.11.45l-.25-1.31c.43-2.82,4.06,1.66,6.72.58l-.96-.75c1.45-.97,4.06,3.84,5.52,4.19.32.25-.5.39-.95.58,3.82,1.66.49-1.72,3.34-2.12.52.93-.68,2.36,1.24,2.53.95.75,5.55-3.01,8.17-1.23-.58-.71-1.15-1.43.17-1.96,2.03-.26,5.47,2.7,7.3.45.26.19.35.38.37.56,1.55-.58,5.03-.97,5.96-2.19,1.43,4.53,9.62-2.2,9.59,1.97l4.76-.22-.12.43c3.04.28,4.12-.72,5.19-1.73.7.28.19.67.13.89,4.45.84,4.89.66,8.62-1.42l.39,1.35c1.01-.79,6.43,2.13,10.79.54-.04.15-.13.42-.48.61,4.91-1.59,11.75,3.76,13.55-1.18l3.24-1.22c-4.19-.38.62-2.14-1.1-2.96,1.65-.29,4.26,1.49,2.24,1.74l-.32-.25c-.74,2.57,5.21.91,5.09,2.66,8.24-.13,16.28,1.3,24,1.41l-.89-2,2.69.11c.71.47.95,1.56-.97,1.48,1.01,1.13,3.22-.95,3.28-1.38,3.76.81-1.47,2.33-.32,2.38l1.57-.15-.35-.23c1.27-.82,1.38-1.68,3.69-1.58,1.46.4.75,1.23,1.33,1.31,0,.14.19.21.88.06l3.39.17-1.36-1.58c1.5-.78,3.19.08,1.63-1.71,2.3,2.76,12.66.99,14.07,1.85,2.11-1.15,4.19-1.13,6.76-.99-.64-.33-1.02-2.1,1.2-1.89-.81,3.66,4.07,1.59,5.86,4.23-1.6-1.75,6.32-.43,3.8-2.91,1.85.3.11,1.37,1.52,2.23,4.41-1.42,9.72.92,15.18.44.09-.48-.83-1.22.34-1.93l2.88,2.4c1.08-.24.99-2.78,2.96-1.11-.28-.4-.69-1.01.03-1.17,10.69,2.34,21.83-1.92,32.69,2.48-1.47-.93-.49-1.02.63-1.06-.73-.22.02-1.19-.13-1.84l4.54,1.81c.83-1.81,4.87-.12,5.34-1.85l-1.44.31c1.05-1.12.14-2.38-.85-3.72h4.48v-9.83h-58.55c.06-.01.11-.03.17-.06ZM1275.58,412.74h-3.1c.76-.49,1.97-.66,3.1,0ZM1271.88,412.66s0,.05-.01.08h-.22l.23-.08ZM1246.29,406.37s-.04.04-.06.06c-1.32-.51-.85-.31.06-.06ZM1235.09,409.32c2.94-.57,1.27,1.49,1.78,1.16,5.52.4,4.7-4.03,9.29-2.36,1.82,1.47.08,2.92.49,3.98-2.39.56-3.68-.93-5.3-.87l2,.7c-.76.49-2.36.86-3.23.43.18.16.46.28.81.38h-11.34c1.09-1.44,3.08-2.72,5.5-3.42ZM1217.04,411.55c-.09.39.18.88.39,1.2h-2.38c.65-.56,1.36-1.02,1.99-1.2ZM1201.13,409.07c.29.14,4.35,2.01,5.3,3.04.17.2.26.41.3.63h-2.89l-.06-2.08-.35,2.08h-2.83c0-1.61.16-3.04.52-3.67ZM1186.61,408.86l.65.9,2.62-1.03c-.69,1.01-1.92,2.49-3.29,4h-4.34c1.26-1.71,2.77-3.31,4.36-3.88ZM1163.68,409.35c-.08.14-.14.29-.18.46-.03-.3-.31-.44.18-.46ZM1157.25,410.31c-.17.61-.09,1.48.02,2.43h-2.02l1.99-2.43ZM1114.37,410.62c.39.29.07.89-.47,1.62.22-.14.43-.29.6-.42.46.26.64.57.64.92h-1.61c.13-.17.26-.34.38-.5-.24.15-.51.33-.79.5h-.7c-.52-.52-.98-.96-1.29-1.18l3.25-.94ZM1233.8,427.86l-.53-.35c1.2-.38.87-.04.53.35Z"></path>
            <path fill="#FF9100" d="M1267.4,409.61c.36-1.55-.95-1.04-2.25-.53.14,1.11,1.24.73,2.47.53-.07,0-.14.01-.22,0Z"></path>
            <path fill="#FF9100" d="M1269.03,409.54c.14-.62-.46-.13-1.14.03.38-.05.76-.08,1.14-.03Z"></path>
            <path fill="#FF9100" d="M1252.49,406.2c.58.29.37-1.42.69-.97.65-1.41-3.88,1.71-.69.97Z"></path>
            <polygon fill="#FF9100" points="1265.01 412.47 1266.14 412.73 1265.7 411.37 1265.01 412.47"></polygon>
            <path fill="#FF9100" d="M1256.45,411.73l1.96.38c-.03-.23.22-.36.53-.47-1.21-.05-2.53-.32-2.49.09Z"></path>
            <path fill="#FF9100" d="M1260.51,411.41c-.34.01-1.07.06-1.58.23.63.03,1.23,0,1.58-.23Z"></path>
            <path fill="#FF9100" d="M1234.38,412.43c.51-.33,1.31-.51.98-.96l-2.14.39c-.22.47.37.76,1.16.57Z"></path>
            <polygon fill="#FF9100" points="1333.42 429.27 1335.05 429.85 1334 428.92 1333.42 429.27"></polygon>
            <path fill="#FF9100" d="M1336.55,427.21l.38,1.77.98-1.61c-.37.08-1.08.23-1.36-.17Z"></path>
          </g>
        </g>
      </g>
      <g>
        <path fill="#303030" d="M586.99,247.24h6.43l12.54,18.97c11.25,16.72,17.04,22.83,27.97,29.26v57.23h-18.97c-2.25-1.29-4.5-3.54-7.07-6.43-3.86,38.58-17.04,68.81-40.19,97.75l-68.81-36.65v-4.82c52.09-8.36,88.74-32.15,104.18-57.55l-36.65-52.09,20.58-45.66Z"></path>
        <path fill="#303030" d="M884.74,413.79l-.96-1.29,7.72-9.32c1.61-1.29,3.22-2.57,5.47-3.22l58.2-17.68,1.29,1.61-8.36,11.58c-1.29,1.61-2.89,2.89-5.14,3.54l-58.2,14.79Z"></path>
        <path fill="#303030" d="M1048.41,163.64l-131.83,26.37,16.4,8.36c54.66,27.65,89.06,61.09,65.59,118.97l-10.61,26.04c-52.73,26.37-166.23,36.01-225.07,36.01s-113.82-7.07-148.23-26.69v-57.23h18.97c31.19,18.01,85.85,24.44,143.72,24.44,63.98,0,131.51-7.72,174.91-15.76,18.01-3.22,35.05-5.79,47.27-9.32,1.61-11.9-48.55-36.65-83.92-53.7l-20.58-9.97,33.76-91.32,145.98-32.8,3.54,5.47-29.9,51.12Z"></path>
        <path fill="#303030" d="M1105.01,262.03l-10.29,23.47c.96,5.47,1.29,10.93,1.29,16.08,0,47.59-22.83,96.14-54.66,133.11l-69.13-35.05v-6.43c59.48-10.61,106.75-33.76,117.04-69.13-13.5-21.86-35.05-41.48-51.45-57.88l21.86-52.09h6.43l38.91,47.91Z"></path>
        <path fill="#303030" d="M1131.83,285.5l-8.04-122.83,32.47-45.01h6.43v167.2c0,12.22,5.47,15.11,32.8,15.11v45.01c0,10.29-5.47,15.76-15.75,15.76-30.22,0-44.37-22.51-47.91-75.24Z"></path>
        <path fill="#303030" d="M1212.15,299.32l13.18-24.76c24.44-44.05,48.23-61.09,69.45-61.09,35.05,0,59.16,46.62,44.37,90.03l-.96,2.57c-6.11,17.68-17.04,37.3-27.65,53.05-32.47-4.18-54.98-12.54-79.42-26.69l-17.68-10.29-16.08,35.69c-5.14,1.93-11.57,2.89-17.68,2.89v-45.34c0-10.29,5.14-15.43,15.43-15.43,7.72,0,12.86-.32,17.04-.64ZM1229.83,276.5c34.08,14.79,72.02,25.08,93.24,29.58-9.65-23.79-38.58-47.27-63.66-47.27-11.9,0-22.51,5.47-29.58,17.68Z"></path>
      </g>
    </g>
  </g>
</svg>